<svg xmlns="http://www.w3.org/2000/svg" width="720" height="720"><path fill="#B4B5B4" d="M276 225c2.306-.105 4.616-.139 6.925-.145l2.198-.01q3.632-.013 7.264-.013l5.084-.01q5.36-.009 10.721-.007 5.439 0 10.878-.02c38.62-.146 72.557 1.431 106.807 20.942 19.525 11.615 36.141 29.602 47.257 49.27C482.395 312.044 489.323 331.442 490 351l.156 3.863c.715 26.38-5.759 49.999-18.156 73.137-5.156 9.189-11.99 17.188-19 25l-2.14 2.398c-14.676 15.516-34.194 26.888-54.465 33.356C357.405 500.28 314.272 495 275 495V312h28v154c56.735 1.593 56.735 1.593 107.198-15.335C426.206 441.078 438.844 427.163 448 411c8.662-16.044 12.665-33.415 13.25-51.562-.648-19.874-5.981-38.351-16.395-55.302-9.903-15.45-23.12-27.898-39.3-36.581-14.155-7.23-30.033-12.592-46.06-12.729l-3.854-.04-2.038-.016q-3.187-.026-6.373-.065-9.054-.104-18.11-.182-5.554-.049-11.108-.12a813 813 0 0 0-4.206-.037c-16.947-.106-16.947-.106-24.443-3.593-6.133-4.182-10.23-8.798-13.738-15.335-.824-3.216-.816-6.136-.625-9.438z"/><path fill="#666767" d="m355.63 268.395 2.785.106c16.3.765 30.991 5.816 44.78 14.515A136 136 0 0 1 411 289l2.316 1.824c11.856 9.835 20.118 23.005 25.494 37.334 5.712 16.294 7.116 33.586 4.128 50.655-4.05 17.146-12.217 31.707-24.242 44.532-12.607 12.968-27.987 20.736-45.173 25.745-6.897 1.782-13.304 2.044-20.39 2.008l-3.136-.005c-3.29-.005-6.581-.018-9.872-.03q-3.356-.008-6.71-.014-8.208-.017-16.415-.049-.042-6.72-.062-13.437l-.026-3.877-.01-3.682-.016-3.412L317 424l1-1c2.998-.111 5.977-.162 8.977-.176l5.664-.072c2.97-.035 5.94-.064 8.91-.078 13.558-.074 26.154-.563 38.625-6.498C391.37 409.526 400.139 402.203 407 391l1.176-1.848c5.008-8.797 7.044-19.83 7.262-29.84C415.01 346.565 411.527 335.95 405 325c-6.482-9.76-14.768-16.37-25.184-21.598-9.384-4.1-18.093-5.697-28.293-5.72l-3.048-.031c-3.295-.031-6.59-.048-9.885-.065q-3.445-.028-6.89-.059c-6.021-.05-12.043-.09-18.065-.128-6.154-.04-12.307-.091-18.461-.141Q277.087 297.114 259 297l-.004 2.052a17688 17688 0 0 1-.18 49.505c-.04 7.98-.072 15.96-.087 23.94q-.019 10.438-.084 20.875c-.022 3.682-.038 7.363-.037 11.045.001 4.118-.03 8.235-.062 12.352l.015 3.67c-.086 7.035-.956 12.458-4.561 18.561-3.52 5.085-7.592 8.16-13 11-3 1-3 1-11 1V269l55.063-.562 17.242-.186 10.402-.099q3.415-.033 6.829-.072c12.042-.138 24.06-.171 36.095.314"/></svg>